<svg width="52" height="20" viewBox="0 0 52 20" fill="none" xmlns="http://www.w3.org/2000/svg">
<path d="M16.5795 1.09091V20H12.2955L5.46307 10.0653H5.35227V20H0.21875V1.09091H4.5767L11.2983 10.9886H11.446V1.09091H16.5795ZM19.0447 20V16.3068L26.0987 10.4716C26.5665 10.0838 26.9666 9.72064 27.299 9.3821C27.6375 9.0374 27.8961 8.68348 28.0746 8.32031C28.2592 7.95715 28.3516 7.55398 28.3516 7.11079C28.3516 6.62453 28.2469 6.20904 28.0376 5.86435C27.8345 5.51965 27.5514 5.25497 27.1882 5.07031C26.825 4.8795 26.4065 4.78409 25.9325 4.78409C25.4586 4.78409 25.04 4.8795 24.6768 5.07031C24.3198 5.26113 24.0429 5.54119 23.8459 5.91051C23.6489 6.27983 23.5504 6.72917 23.5504 7.25852H18.6754C18.6754 5.92898 18.974 4.78409 19.571 3.82386C20.1681 2.86364 21.0114 2.125 22.1009 1.60795C23.1903 1.09091 24.4676 0.832386 25.9325 0.832386C27.4467 0.832386 28.7578 1.07552 29.8658 1.56179C30.9799 2.0419 31.8385 2.71899 32.4418 3.59304C33.0511 4.46709 33.3558 5.49195 33.3558 6.66761C33.3558 7.39394 33.205 8.11719 32.9034 8.83736C32.6018 9.55137 32.0601 10.3423 31.2784 11.2102C30.4967 12.0781 29.3857 13.1122 27.9453 14.3125L26.1726 15.7898V15.9006H33.5589V20H19.0447ZM35.2624 17.0455V13.0568L42.8704 1.09091H46.4897V6.40909H44.4215L40.3221 12.9091V13.0568H51.5494V17.0455H35.2624ZM44.4585 20V15.8267L44.5692 14.0909V1.09091H49.3704V20H44.4585Z" fill="#295091"/>
</svg>
